<svg width="31" height="31" viewBox="0 0 31 31" fill="none" xmlns="http://www.w3.org/2000/svg">
<g clip-path="url(#clip0_1_34)">
<path fill-rule="evenodd" clip-rule="evenodd" d="M15.2 0.0400391C6.84616 0.0400391 0.0799561 6.80624 0.0799561 15.16C0.0799561 21.8506 4.40806 27.5017 10.4183 29.5051C11.1743 29.6374 11.4578 29.1838 11.4578 28.7869C11.4578 28.4278 11.4389 27.2371 11.4389 25.9708C7.63996 26.6701 6.65716 25.0447 6.35476 24.1942C6.18466 23.7595 5.44756 22.4176 4.80496 22.0585C4.27576 21.775 3.51976 21.0757 4.78606 21.0568C5.97676 21.0379 6.82726 22.153 7.11076 22.6066C8.47156 24.8935 10.6451 24.2509 11.5145 23.854C11.6468 22.8712 12.0437 22.2097 12.4784 21.8317C9.11416 21.4537 5.59876 20.1496 5.59876 14.3662C5.59876 12.7219 6.18466 11.3611 7.14856 10.3027C6.99736 9.92474 6.46816 8.37494 7.29976 6.29594C7.29976 6.29594 8.56606 5.89904 11.4578 7.84574C12.6674 7.50554 13.9526 7.33544 15.2378 7.33544C16.523 7.33544 17.8082 7.50554 19.0178 7.84574C21.9095 5.88014 23.1758 6.29594 23.1758 6.29594C24.0074 8.37494 23.4782 9.92474 23.327 10.3027C24.2909 11.3611 24.8768 12.703 24.8768 14.3662C24.8768 20.1685 21.3425 21.4537 17.9783 21.8317C18.5264 22.3042 18.9989 23.2114 18.9989 24.6289C18.9989 26.6512 18.98 28.2766 18.98 28.7869C18.98 29.1838 19.2635 29.6563 20.0195 29.5051C23.021 28.4917 25.6292 26.5626 27.477 23.9893C29.3247 21.416 30.3191 18.328 30.32 15.16C30.32 6.80624 23.5538 0.0400391 15.2 0.0400391Z" fill="black"/>
</g>
<defs>
<clipPath id="clip0_1_34">
<rect width="30.24" height="30.24" fill="white" transform="translate(0.0799561 0.0400391)"/>
</clipPath>
</defs>
</svg>
