<svg width="31" height="31" viewBox="0 0 31 31" fill="none" xmlns="http://www.w3.org/2000/svg">
<path d="M30.156 8.94432C30.1391 7.67193 29.9009 6.41218 29.4521 5.22144C29.0629 4.21706 28.4685 3.30489 27.7068 2.54324C26.9452 1.78158 26.033 1.18717 25.0286 0.798C23.8532 0.35676 22.6114 0.118173 21.3562 0.0924001C19.74 0.0201601 19.2276 0 15.125 0C11.0225 0 10.4966 1.12653e-07 8.89224 0.0924001C7.63755 0.118363 6.39634 0.356946 5.22144 0.798C4.2169 1.1869 3.3046 1.78121 2.5429 2.5429C1.78121 3.3046 1.1869 4.2169 0.798 5.22144C0.355876 6.39598 0.117807 7.63747 0.09408 8.89224C0.02184 10.5101 0 11.0225 0 15.125C0 19.2276 -1.2517e-08 19.7518 0.09408 21.3578C0.11928 22.6145 0.35616 23.8543 0.798 25.032C1.18755 26.0362 1.78231 26.9482 2.54425 27.7095C3.3062 28.4709 4.21859 29.065 5.22312 29.4538C6.39481 29.9127 7.63623 30.1684 8.89392 30.2098C10.5118 30.282 11.0242 30.3038 15.1267 30.3038C19.2293 30.3038 19.7551 30.3038 21.3595 30.2098C22.6147 30.185 23.8566 29.947 25.032 29.5058C26.0361 29.1162 26.9481 28.5217 27.7097 27.7601C28.4713 26.9985 29.0658 26.0865 29.4554 25.0824C29.8973 23.9064 30.1342 22.6666 30.1594 21.4082C30.2316 19.7921 30.2534 19.2797 30.2534 15.1754C30.2501 11.0729 30.2501 10.5521 30.156 8.94432ZM15.115 22.8833C10.8242 22.8833 7.34832 19.4074 7.34832 15.1166C7.34832 10.8259 10.8242 7.35 15.115 7.35C17.1748 7.35 19.1503 8.16827 20.6068 9.6248C22.0633 11.0813 22.8816 13.0568 22.8816 15.1166C22.8816 17.1765 22.0633 19.152 20.6068 20.6085C19.1503 22.065 17.1748 22.8833 15.115 22.8833ZM23.1907 8.87376C22.9528 8.87398 22.7172 8.82729 22.4974 8.73635C22.2776 8.64542 22.0778 8.51203 21.9096 8.34381C21.7414 8.1756 21.608 7.97586 21.5171 7.75604C21.4262 7.53621 21.3795 7.30061 21.3797 7.06272C21.3797 6.825 21.4265 6.58961 21.5175 6.36999C21.6084 6.15036 21.7418 5.95081 21.9099 5.78272C22.078 5.61462 22.2775 5.48128 22.4971 5.39031C22.7168 5.29934 22.9522 5.25252 23.1899 5.25252C23.4276 5.25252 23.663 5.29934 23.8826 5.39031C24.1022 5.48128 24.3018 5.61462 24.4699 5.78272C24.638 5.95081 24.7713 6.15036 24.8623 6.36999C24.9533 6.58961 25.0001 6.825 25.0001 7.06272C25.0001 8.064 24.1903 8.87376 23.1907 8.87376Z" fill="black"/>
<path d="M15.115 20.1617C17.9013 20.1617 20.16 17.903 20.16 15.1167C20.16 12.3304 17.9013 10.0716 15.115 10.0716C12.3287 10.0716 10.0699 12.3304 10.0699 15.1167C10.0699 17.903 12.3287 20.1617 15.115 20.1617Z" fill="black"/>
</svg>
