<svg width="29" height="29" viewBox="0 0 29 29" fill="none" xmlns="http://www.w3.org/2000/svg">
<g clip-path="url(#clip0_1_36)">
<path d="M5.59956 0.00715637C2.52316 0.00715637 0.00531006 2.52495 0.00531006 5.6014V22.9613C0.00531006 26.0377 2.5231 28.5547 5.59956 28.5547H22.9595C26.0359 28.5547 28.5528 26.0378 28.5528 22.9613V5.6014C28.5528 2.52501 26.0359 0.00715637 22.9595 0.00715637H5.59956ZM7.00659 4.71807C8.48166 4.71807 9.39024 5.68643 9.41829 6.95932C9.41829 8.20411 8.4816 9.19968 6.97806 9.19968H6.95039C5.5034 9.19968 4.56814 8.20416 4.56814 6.95932C4.56814 5.68646 5.5317 4.71807 7.00657 4.71807H7.00659ZM19.7181 10.6674C22.5549 10.6674 24.6815 12.5216 24.6815 16.5061V23.9445H20.3703V17.0048C20.3703 15.2609 19.7464 14.0712 18.1861 14.0712C16.9951 14.0712 16.2851 14.8731 15.9734 15.6478C15.8596 15.9249 15.8316 16.312 15.8316 16.6997V23.9445H11.5204C11.5204 23.9445 11.5769 12.1889 11.5204 10.9716H15.8325V12.8087C16.4054 11.9248 17.4302 10.6674 19.7181 10.6674V10.6674ZM4.82244 10.9726H9.13366V23.9446H4.82244V10.9726Z" fill="black"/>
</g>
<defs>
<clipPath id="clip0_1_36">
<rect width="28.56" height="28.56" fill="white"/>
</clipPath>
</defs>
</svg>
