<svg width="200" height="200" viewBox="0 0 200 200" fill="none" xmlns="http://www.w3.org/2000/svg">
<circle cx="100" cy="100" r="100" fill="url(#paint0_linear_1_22)"/>
<path d="M82.2474 73.816C82.2474 72.264 82.4874 70.952 82.9674 69.88C83.4634 68.808 84.0874 67.944 84.8394 67.288C85.6074 66.632 86.4554 66.16 87.3834 65.872C88.3274 65.568 89.2474 65.416 90.1434 65.416C91.0394 65.416 91.9514 65.544 92.8794 65.8C93.8234 66.04 94.6714 66.48 95.4234 67.12C96.1914 67.744 96.8154 68.6 97.2954 69.688C97.7914 70.776 98.0394 72.16 98.0394 73.84C98.0394 75.408 97.7914 76.728 97.2954 77.8C96.8154 78.872 96.1914 79.744 95.4234 80.416C94.6714 81.088 93.8234 81.576 92.8794 81.88C91.9514 82.168 91.0394 82.312 90.1434 82.312C89.2474 82.312 88.3274 82.168 87.3834 81.88C86.4554 81.592 85.6074 81.12 84.8394 80.464C84.0874 79.808 83.4634 78.936 82.9674 77.848C82.4874 76.76 82.2474 75.416 82.2474 73.816ZM95.7594 73.936C95.7594 71.776 95.2554 70.136 94.2474 69.016C93.2554 67.896 91.9194 67.336 90.2394 67.336C89.3914 67.336 88.6154 67.472 87.9114 67.744C87.2234 68 86.6234 68.392 86.1114 68.92C85.6154 69.448 85.2234 70.112 84.9354 70.912C84.6634 71.696 84.5274 72.624 84.5274 73.696C84.5274 75.856 85.0234 77.512 86.0154 78.664C87.0234 79.816 88.3674 80.392 90.0474 80.392C90.8794 80.392 91.6474 80.264 92.3514 80.008C93.0554 79.736 93.6554 79.328 94.1514 78.784C94.6634 78.24 95.0554 77.568 95.3274 76.768C95.6154 75.968 95.7594 75.024 95.7594 73.936ZM108.21 80.68H108.162C108.018 80.792 107.81 80.944 107.538 81.136C107.266 81.312 106.954 81.488 106.602 81.664C106.25 81.84 105.858 81.992 105.426 82.12C105.01 82.248 104.586 82.312 104.154 82.312C103.562 82.312 103.058 82.232 102.642 82.072C102.226 81.928 101.89 81.68 101.634 81.328C101.378 80.976 101.194 80.512 101.082 79.936C100.97 79.36 100.914 78.64 100.914 77.776V69.928H102.834V77.488C102.834 77.968 102.842 78.4 102.858 78.784C102.874 79.168 102.93 79.496 103.026 79.768C103.122 80.04 103.274 80.256 103.482 80.416C103.706 80.56 104.018 80.632 104.418 80.632C104.834 80.632 105.266 80.544 105.714 80.368C106.162 80.192 106.57 79.992 106.938 79.768C107.37 79.512 107.794 79.224 108.21 78.904V69.928H110.13V80.44C110.146 81.016 110.186 81.536 110.25 82L108.354 82.192L108.21 80.68ZM113.643 71.872C113.643 71.504 113.603 70.928 113.523 70.144L115.299 69.904L115.491 71.656H115.515C115.803 71.288 116.083 70.968 116.355 70.696C116.627 70.424 116.907 70.192 117.195 70C117.499 69.792 117.787 69.688 118.059 69.688C118.427 69.672 118.939 69.712 119.595 69.808L119.163 71.656C118.635 71.56 118.267 71.52 118.059 71.536C117.787 71.536 117.499 71.664 117.195 71.92C116.891 72.176 116.627 72.448 116.403 72.736C116.115 73.088 115.835 73.488 115.563 73.936V82H113.643V71.872ZM76.4558 94.632H78.4718V109.08H85.9118V111H76.4558V94.632ZM89.2757 105.024C89.2757 106.576 89.6197 107.736 90.3077 108.504C91.0117 109.256 91.9557 109.632 93.1397 109.632C94.3077 109.632 95.2197 109.256 95.8757 108.504C96.5317 107.752 96.8597 106.624 96.8597 105.12C96.8597 103.52 96.5077 102.328 95.8037 101.544C95.1157 100.76 94.1717 100.368 92.9717 100.368C91.7717 100.368 90.8517 100.76 90.2117 101.544C89.5877 102.312 89.2757 103.472 89.2757 105.024ZM87.2357 105C87.2357 103.784 87.4277 102.776 87.8117 101.976C88.1957 101.16 88.6837 100.512 89.2757 100.032C89.8677 99.536 90.4997 99.192 91.1717 99C91.8597 98.792 92.5077 98.688 93.1157 98.688C93.6917 98.688 94.3157 98.784 94.9877 98.976C95.6757 99.152 96.3077 99.48 96.8837 99.96C97.4597 100.424 97.9397 101.056 98.3237 101.856C98.7077 102.64 98.8997 103.64 98.8997 104.856C98.8997 106.12 98.6997 107.168 98.2997 108C97.9157 108.832 97.4277 109.496 96.8357 109.992C96.2437 110.472 95.6037 110.808 94.9157 111C94.2277 111.208 93.5877 111.312 92.9957 111.312C92.3877 111.312 91.7477 111.216 91.0757 111.024C90.4037 110.832 89.7797 110.504 89.2037 110.04C88.6437 109.56 88.1717 108.912 87.7877 108.096C87.4197 107.28 87.2357 106.248 87.2357 105ZM111.145 112.152C111.145 112.744 111.081 113.32 110.953 113.88C110.825 114.44 110.577 114.936 110.209 115.368C109.857 115.816 109.353 116.168 108.697 116.424C108.057 116.696 107.209 116.832 106.153 116.832C105.481 116.816 104.897 116.776 104.401 116.712C103.905 116.648 103.433 116.552 102.985 116.424C102.537 116.312 102.129 116.176 101.761 116.016L102.265 114.336C102.889 114.608 103.521 114.816 104.161 114.96C104.817 115.104 105.401 115.176 105.913 115.176C106.473 115.176 106.961 115.12 107.377 115.008C107.793 114.896 108.137 114.704 108.409 114.432C108.697 114.176 108.905 113.832 109.033 113.4C109.177 112.968 109.249 112.432 109.249 111.792V110.04C108.913 110.264 108.561 110.472 108.193 110.664C107.841 110.84 107.457 110.992 107.041 111.12C106.641 111.248 106.249 111.312 105.865 111.312C104.377 111.312 103.201 110.792 102.337 109.752C101.473 108.696 101.041 107.128 101.041 105.048C101.041 103.848 101.225 102.848 101.593 102.048C101.977 101.232 102.457 100.576 103.033 100.08C103.609 99.584 104.241 99.232 104.929 99.024C105.617 98.8 106.273 98.688 106.897 98.688C107.713 98.688 108.457 98.76 109.129 98.904C109.817 99.032 110.489 99.136 111.145 99.216V112.152ZM106.081 109.632C106.433 109.632 106.793 109.568 107.161 109.44C107.529 109.312 107.881 109.16 108.217 108.984C108.569 108.808 108.913 108.6 109.249 108.36V100.704C109.057 100.656 108.833 100.6 108.577 100.536C108.353 100.504 108.097 100.472 107.809 100.44C107.521 100.392 107.217 100.368 106.897 100.368C106.225 100.368 105.649 100.488 105.169 100.728C104.689 100.968 104.289 101.296 103.969 101.712C103.665 102.128 103.441 102.616 103.297 103.176C103.153 103.736 103.081 104.328 103.081 104.952C103.081 105.512 103.137 106.072 103.249 106.632C103.377 107.192 103.569 107.696 103.825 108.144C104.081 108.592 104.393 108.952 104.761 109.224C105.129 109.496 105.569 109.632 106.081 109.632ZM115.971 105.024C115.971 106.576 116.315 107.736 117.003 108.504C117.707 109.256 118.651 109.632 119.835 109.632C121.003 109.632 121.915 109.256 122.571 108.504C123.227 107.752 123.555 106.624 123.555 105.12C123.555 103.52 123.203 102.328 122.499 101.544C121.811 100.76 120.867 100.368 119.667 100.368C118.467 100.368 117.547 100.76 116.907 101.544C116.283 102.312 115.971 103.472 115.971 105.024ZM113.931 105C113.931 103.784 114.123 102.776 114.507 101.976C114.891 101.16 115.379 100.512 115.971 100.032C116.563 99.536 117.195 99.192 117.867 99C118.555 98.792 119.203 98.688 119.811 98.688C120.387 98.688 121.011 98.784 121.683 98.976C122.371 99.152 123.003 99.48 123.579 99.96C124.155 100.424 124.635 101.056 125.019 101.856C125.403 102.64 125.595 103.64 125.595 104.856C125.595 106.12 125.395 107.168 124.995 108C124.611 108.832 124.123 109.496 123.531 109.992C122.939 110.472 122.299 110.808 121.611 111C120.923 111.208 120.283 111.312 119.691 111.312C119.083 111.312 118.443 111.216 117.771 111.024C117.099 110.832 116.475 110.504 115.899 110.04C115.339 109.56 114.867 108.912 114.483 108.096C114.115 107.28 113.931 106.248 113.931 105ZM78.4245 123.632H80.4405V130.712H88.7205V123.632H90.7365V140H88.7205V132.512H80.4405V140H78.4245V123.632ZM103.328 139.712C102.96 139.824 102.576 139.92 102.176 140C101.792 140.08 101.36 140.152 100.88 140.216C100.416 140.28 99.9279 140.312 99.4159 140.312C98.6159 140.312 97.8719 140.2 97.1839 139.976C96.4959 139.752 95.8959 139.392 95.3839 138.896C94.8719 138.4 94.4639 137.76 94.1599 136.976C93.8719 136.176 93.7279 135.2 93.7279 134.048C93.7279 133.008 93.8719 132.096 94.1599 131.312C94.4479 130.512 94.8399 129.848 95.3359 129.32C95.8479 128.776 96.4399 128.368 97.1119 128.096C97.7999 127.824 98.5439 127.688 99.3439 127.688C100.128 127.688 100.808 127.84 101.384 128.144C101.96 128.448 102.432 128.864 102.8 129.392C103.184 129.904 103.464 130.512 103.64 131.216C103.832 131.904 103.928 132.632 103.928 133.4L103.568 134.456H95.8159C95.8159 134.952 95.8799 135.448 96.0079 135.944C96.1359 136.44 96.3519 136.888 96.6559 137.288C96.9759 137.688 97.3839 138.016 97.8799 138.272C98.3919 138.512 99.0239 138.632 99.7759 138.632C100.256 138.632 100.696 138.608 101.096 138.56C101.496 138.496 101.84 138.432 102.128 138.368C102.432 138.288 102.712 138.2 102.968 138.104L103.328 139.712ZM101.936 132.92C101.936 132.808 101.912 132.56 101.864 132.176C101.816 131.792 101.704 131.392 101.528 130.976C101.352 130.56 101.08 130.192 100.712 129.872C100.344 129.536 99.8559 129.368 99.2479 129.368C98.5759 129.368 98.0239 129.512 97.5919 129.8C97.1599 130.072 96.8159 130.4 96.5599 130.784C96.3039 131.168 96.1279 131.56 96.0319 131.96C95.9359 132.36 95.8879 132.68 95.8879 132.92H101.936ZM106.565 129.872C106.565 129.504 106.525 128.928 106.445 128.144L108.221 127.904L108.413 129.656H108.437C108.725 129.288 109.005 128.968 109.277 128.696C109.549 128.424 109.829 128.192 110.117 128C110.421 127.792 110.709 127.688 110.98 127.688C111.349 127.672 111.861 127.712 112.517 127.808L112.085 129.656C111.557 129.56 111.189 129.52 110.98 129.536C110.709 129.536 110.421 129.664 110.117 129.92C109.813 130.176 109.549 130.448 109.325 130.736C109.037 131.088 108.757 131.488 108.485 131.936V140H106.565V129.872ZM123.203 139.712C122.835 139.824 122.451 139.92 122.051 140C121.667 140.08 121.235 140.152 120.755 140.216C120.291 140.28 119.803 140.312 119.291 140.312C118.491 140.312 117.747 140.2 117.059 139.976C116.371 139.752 115.771 139.392 115.259 138.896C114.747 138.4 114.339 137.76 114.035 136.976C113.747 136.176 113.603 135.2 113.603 134.048C113.603 133.008 113.747 132.096 114.035 131.312C114.323 130.512 114.715 129.848 115.211 129.32C115.723 128.776 116.315 128.368 116.987 128.096C117.675 127.824 118.419 127.688 119.219 127.688C120.003 127.688 120.683 127.84 121.259 128.144C121.835 128.448 122.307 128.864 122.675 129.392C123.059 129.904 123.339 130.512 123.515 131.216C123.707 131.904 123.803 132.632 123.803 133.4L123.443 134.456H115.691C115.691 134.952 115.755 135.448 115.883 135.944C116.011 136.44 116.227 136.888 116.531 137.288C116.851 137.688 117.259 138.016 117.755 138.272C118.267 138.512 118.899 138.632 119.651 138.632C120.131 138.632 120.571 138.608 120.971 138.56C121.371 138.496 121.715 138.432 122.003 138.368C122.307 138.288 122.587 138.2 122.843 138.104L123.203 139.712ZM121.811 132.92C121.811 132.808 121.787 132.56 121.739 132.176C121.691 131.792 121.579 131.392 121.403 130.976C121.227 130.56 120.955 130.192 120.587 129.872C120.219 129.536 119.731 129.368 119.123 129.368C118.451 129.368 117.899 129.512 117.467 129.8C117.035 130.072 116.691 130.4 116.435 130.784C116.179 131.168 116.003 131.56 115.907 131.96C115.811 132.36 115.763 132.68 115.763 132.92H121.811Z" fill="black"/>
<defs>
<linearGradient id="paint0_linear_1_22" x1="-48.3516" y1="85.0267" x2="231.868" y2="85.0267" gradientUnits="userSpaceOnUse">
<stop stop-color="#F1EFEF"/>
<stop offset="0.53125" stop-color="#F9F8F8"/>
<stop offset="0.992158" stop-color="#E7E5E5"/>
</linearGradient>
</defs>
</svg>
