<svg width="249" height="503" viewBox="0 0 249 503" fill="none" xmlns="http://www.w3.org/2000/svg">
<g filter="url(#filter0_d_14_40)">
<rect x="4" y="8" width="238" height="479" rx="24" fill="url(#paint0_linear_14_40)"/>
<path d="M102.18 177.839C102.18 176.109 102.447 174.646 102.983 173.45C103.536 172.255 104.231 171.292 105.07 170.56C105.926 169.829 106.872 169.303 107.907 168.982C108.959 168.643 109.985 168.473 110.984 168.473C111.983 168.473 113 168.616 114.035 168.901C115.087 169.169 116.033 169.659 116.871 170.373C117.727 171.069 118.423 172.023 118.958 173.236C119.511 174.45 119.788 175.993 119.788 177.866C119.788 179.614 119.511 181.086 118.958 182.281C118.423 183.477 117.727 184.449 116.871 185.198C116.033 185.947 115.087 186.492 114.035 186.83C113 187.152 111.983 187.312 110.984 187.312C109.985 187.312 108.959 187.152 107.907 186.83C106.872 186.509 105.926 185.983 105.07 185.252C104.231 184.52 103.536 183.548 102.983 182.335C102.447 181.122 102.18 179.623 102.18 177.839ZM117.246 177.973C117.246 175.565 116.684 173.736 115.56 172.487C114.454 171.238 112.964 170.614 111.091 170.614C110.145 170.614 109.28 170.766 108.495 171.069C107.728 171.354 107.059 171.791 106.488 172.38C105.935 172.969 105.498 173.709 105.177 174.601C104.874 175.475 104.722 176.51 104.722 177.705C104.722 180.114 105.275 181.96 106.381 183.245C107.505 184.529 109.004 185.171 110.877 185.171C111.805 185.171 112.661 185.029 113.446 184.743C114.231 184.44 114.9 183.985 115.453 183.378C116.024 182.772 116.461 182.023 116.764 181.131C117.085 180.239 117.246 179.186 117.246 177.973ZM131.128 185.492H131.074C130.914 185.617 130.682 185.787 130.379 186.001C130.075 186.197 129.728 186.393 129.335 186.59C128.943 186.786 128.505 186.955 128.024 187.098C127.56 187.241 127.087 187.312 126.606 187.312C125.945 187.312 125.383 187.223 124.92 187.045C124.456 186.884 124.081 186.607 123.796 186.215C123.51 185.823 123.305 185.305 123.18 184.663C123.055 184.021 122.993 183.218 122.993 182.255V173.504H125.134V181.933C125.134 182.469 125.143 182.95 125.16 183.378C125.178 183.807 125.241 184.172 125.348 184.476C125.455 184.779 125.624 185.02 125.856 185.198C126.106 185.359 126.454 185.439 126.9 185.439C127.364 185.439 127.845 185.341 128.345 185.145C128.844 184.948 129.299 184.725 129.71 184.476C130.191 184.19 130.664 183.869 131.128 183.512V173.504H133.269V185.225C133.287 185.867 133.331 186.447 133.403 186.964L131.289 187.178L131.128 185.492ZM137.186 175.672C137.186 175.261 137.141 174.619 137.052 173.745L139.032 173.477L139.246 175.431H139.273C139.594 175.02 139.906 174.664 140.209 174.36C140.513 174.057 140.825 173.798 141.146 173.584C141.485 173.352 141.806 173.236 142.109 173.236C142.52 173.219 143.091 173.263 143.822 173.37L143.34 175.431C142.752 175.324 142.341 175.279 142.109 175.297C141.806 175.297 141.485 175.44 141.146 175.725C140.807 176.011 140.513 176.314 140.263 176.635C139.942 177.027 139.63 177.473 139.326 177.973V186.964H137.186V175.672ZM85.1906 200.714H89.392C91.7112 200.714 93.4238 201.124 94.5299 201.945C95.6538 202.766 96.2158 204.148 96.2158 206.093C96.2158 207.163 96.0106 208.055 95.6003 208.769C95.19 209.482 94.6726 210.062 94.0482 210.508C93.4416 210.936 92.7816 211.248 92.068 211.445C91.3544 211.623 90.6943 211.712 90.0877 211.712H87.4385V218.964H85.1906V200.714ZM87.4385 209.705H89.9004C90.507 209.705 91.0511 209.652 91.5328 209.545C92.0323 209.42 92.4604 209.224 92.8172 208.956C93.174 208.671 93.4506 208.296 93.6468 207.832C93.843 207.35 93.9412 206.753 93.9412 206.039C93.9412 205.326 93.8341 204.755 93.62 204.327C93.4238 203.881 93.1205 203.542 92.7102 203.31C92.3177 203.078 91.8182 202.926 91.2116 202.855C90.6051 202.766 89.9004 202.721 89.0976 202.721H87.4385V209.705ZM99.2407 207.672C99.2407 207.261 99.1961 206.619 99.1069 205.745L101.087 205.477L101.301 207.431H101.328C101.649 207.02 101.961 206.664 102.265 206.36C102.568 206.057 102.88 205.798 103.201 205.584C103.54 205.352 103.861 205.236 104.165 205.236C104.575 205.219 105.146 205.263 105.877 205.37L105.395 207.431C104.807 207.324 104.396 207.279 104.165 207.297C103.861 207.297 103.54 207.44 103.201 207.725C102.862 208.011 102.568 208.314 102.318 208.635C101.997 209.027 101.685 209.473 101.381 209.973V218.964H99.2407V207.672ZM109.363 212.301C109.363 214.032 109.747 215.325 110.514 216.181C111.299 217.02 112.351 217.439 113.671 217.439C114.974 217.439 115.991 217.02 116.722 216.181C117.454 215.343 117.819 214.085 117.819 212.408C117.819 210.624 117.427 209.295 116.642 208.421C115.875 207.547 114.822 207.11 113.484 207.11C112.146 207.11 111.12 207.547 110.407 208.421C109.711 209.277 109.363 210.571 109.363 212.301ZM107.088 212.274C107.088 210.918 107.303 209.795 107.731 208.903C108.159 207.993 108.703 207.27 109.363 206.735C110.023 206.182 110.728 205.798 111.477 205.584C112.244 205.352 112.967 205.236 113.645 205.236C114.287 205.236 114.983 205.343 115.732 205.558C116.499 205.754 117.204 206.119 117.846 206.655C118.488 207.172 119.023 207.877 119.452 208.769C119.88 209.643 120.094 210.758 120.094 212.114C120.094 213.523 119.871 214.692 119.425 215.619C118.997 216.547 118.453 217.287 117.792 217.84C117.132 218.376 116.419 218.75 115.652 218.964C114.885 219.196 114.171 219.312 113.511 219.312C112.833 219.312 112.119 219.205 111.37 218.991C110.621 218.777 109.925 218.411 109.283 217.894C108.658 217.359 108.132 216.636 107.704 215.726C107.294 214.816 107.088 213.666 107.088 212.274ZM125.345 205.21V218.723C125.345 220.329 125.05 221.649 124.462 222.684C123.873 223.736 122.954 224.62 121.705 225.333L120.608 223.433C121.143 223.112 121.58 222.755 121.919 222.363C122.258 221.988 122.517 221.578 122.695 221.132C122.892 220.704 123.025 220.258 123.097 219.794C123.168 219.348 123.204 218.893 123.204 218.429V205.531L125.345 205.21ZM122.776 201.651C122.776 201.24 122.909 200.901 123.177 200.634C123.463 200.348 123.81 200.206 124.221 200.206C124.649 200.206 125.006 200.348 125.291 200.634C125.594 200.901 125.746 201.24 125.746 201.651C125.746 202.061 125.594 202.409 125.291 202.694C125.006 202.962 124.649 203.096 124.221 203.096C123.81 203.096 123.463 202.962 123.177 202.694C122.909 202.409 122.776 202.061 122.776 201.651ZM139.143 218.643C138.733 218.768 138.304 218.875 137.858 218.964C137.43 219.053 136.949 219.134 136.413 219.205C135.896 219.276 135.352 219.312 134.781 219.312C133.889 219.312 133.06 219.187 132.292 218.938C131.525 218.688 130.856 218.286 130.285 217.733C129.715 217.18 129.26 216.467 128.921 215.593C128.6 214.701 128.439 213.612 128.439 212.328C128.439 211.168 128.6 210.151 128.921 209.277C129.242 208.385 129.679 207.645 130.232 207.056C130.803 206.45 131.463 205.995 132.212 205.691C132.979 205.388 133.809 205.236 134.701 205.236C135.575 205.236 136.333 205.406 136.975 205.745C137.618 206.084 138.144 206.548 138.554 207.136C138.982 207.707 139.295 208.385 139.491 209.17C139.705 209.937 139.812 210.749 139.812 211.605L139.411 212.783H130.767C130.767 213.336 130.838 213.889 130.981 214.442C131.124 214.995 131.365 215.494 131.704 215.94C132.06 216.386 132.515 216.752 133.068 217.038C133.639 217.305 134.344 217.439 135.182 217.439C135.718 217.439 136.208 217.412 136.654 217.359C137.1 217.287 137.484 217.216 137.805 217.145C138.144 217.055 138.456 216.957 138.742 216.85L139.143 218.643ZM137.591 211.07C137.591 210.945 137.564 210.669 137.511 210.241C137.457 209.812 137.332 209.366 137.136 208.903C136.94 208.439 136.636 208.028 136.226 207.672C135.816 207.297 135.272 207.11 134.594 207.11C133.844 207.11 133.229 207.27 132.747 207.591C132.266 207.895 131.882 208.26 131.597 208.688C131.311 209.117 131.115 209.554 131.008 210C130.901 210.446 130.847 210.802 130.847 211.07H137.591ZM151.074 207.457C150.771 207.386 150.352 207.315 149.816 207.243C149.281 207.154 148.737 207.11 148.184 207.11C147.381 207.11 146.721 207.27 146.204 207.591C145.704 207.912 145.312 208.332 145.026 208.849C144.741 209.349 144.545 209.91 144.438 210.535C144.331 211.141 144.277 211.739 144.277 212.328C144.277 213.238 144.393 214.023 144.625 214.683C144.857 215.325 145.16 215.851 145.535 216.262C145.927 216.672 146.373 216.975 146.873 217.171C147.372 217.35 147.899 217.439 148.452 217.439C148.826 217.439 149.183 217.421 149.522 217.385C149.879 217.332 150.2 217.278 150.485 217.225C150.789 217.154 151.074 217.073 151.342 216.984L151.77 218.777C151.395 218.884 151.047 218.973 150.726 219.045C150.405 219.116 150.022 219.178 149.576 219.232C149.147 219.285 148.684 219.312 148.184 219.312C147.203 219.312 146.329 219.187 145.562 218.938C144.794 218.688 144.143 218.286 143.608 217.733C143.091 217.18 142.689 216.458 142.404 215.566C142.136 214.674 142.003 213.586 142.003 212.301C142.003 211.052 142.172 209.982 142.511 209.09C142.868 208.18 143.332 207.449 143.902 206.896C144.473 206.325 145.125 205.905 145.856 205.638C146.605 205.37 147.381 205.236 148.184 205.236C148.612 205.236 149.023 205.263 149.415 205.317C149.825 205.352 150.182 205.397 150.485 205.45C150.842 205.522 151.181 205.593 151.502 205.665L151.074 207.457ZM157.537 201.49V205.504H161.418V207.243H157.537V214.388C157.537 214.977 157.546 215.468 157.564 215.86C157.6 216.253 157.662 216.565 157.751 216.797C157.841 217.029 157.965 217.198 158.126 217.305C158.287 217.394 158.492 217.439 158.742 217.439C159.419 217.421 160.204 217.171 161.096 216.69L161.739 218.322C161.15 218.715 160.597 218.973 160.08 219.098C159.58 219.241 159.08 219.312 158.581 219.312C157.404 219.312 156.574 218.982 156.092 218.322C155.628 217.644 155.397 216.529 155.397 214.977V207.243H152.935V205.504H155.397V201.758L157.537 201.49ZM90.3864 232.714H92.661L97.9059 248.823H97.9327L103.097 232.714H105.372L99.2974 250.964H96.4609L90.3864 232.714ZM107.772 237.477L109.913 237.236V250.964H107.772V237.477ZM107.425 233.651C107.425 233.24 107.558 232.901 107.826 232.634C108.111 232.348 108.459 232.206 108.87 232.206C109.298 232.206 109.655 232.348 109.94 232.634C110.243 232.901 110.395 233.24 110.395 233.651C110.395 234.061 110.243 234.409 109.94 234.694C109.655 234.962 109.298 235.096 108.87 235.096C108.459 235.096 108.111 234.962 107.826 234.694C107.558 234.409 107.425 234.061 107.425 233.651ZM122.159 239.511C121.517 239.333 121.018 239.226 120.661 239.19C120.304 239.136 119.938 239.11 119.564 239.11C118.814 239.11 118.172 239.243 117.637 239.511C117.102 239.779 116.656 240.153 116.299 240.635C115.96 241.099 115.71 241.643 115.55 242.267C115.389 242.874 115.309 243.525 115.309 244.221C115.309 244.845 115.371 245.47 115.496 246.094C115.639 246.718 115.853 247.28 116.138 247.78C116.424 248.279 116.772 248.681 117.182 248.984C117.592 249.287 118.083 249.439 118.654 249.439C119.046 249.439 119.448 249.368 119.858 249.225C120.286 249.082 120.679 248.922 121.036 248.743C121.392 248.547 121.767 248.306 122.159 248.021V239.511ZM122.186 249.894C121.776 250.179 121.375 250.42 120.982 250.616C120.607 250.795 120.188 250.955 119.724 251.098C119.278 251.241 118.841 251.312 118.413 251.312C116.736 251.312 115.416 250.723 114.453 249.546C113.507 248.351 113.034 246.611 113.034 244.328C113.034 242.972 113.248 241.839 113.677 240.929C114.123 240.019 114.676 239.297 115.336 238.762C115.996 238.209 116.7 237.816 117.45 237.584C118.217 237.352 118.922 237.236 119.564 237.236C119.885 237.236 120.224 237.263 120.581 237.317C120.937 237.352 121.464 237.459 122.159 237.638V230.921L124.3 230.68V248.529C124.3 248.779 124.3 249.046 124.3 249.332C124.318 249.6 124.336 249.867 124.354 250.135C124.389 250.402 124.425 250.679 124.461 250.964L122.4 251.178L122.186 249.894ZM138.137 250.643C137.727 250.768 137.298 250.875 136.852 250.964C136.424 251.053 135.943 251.134 135.407 251.205C134.89 251.276 134.346 251.312 133.775 251.312C132.883 251.312 132.053 251.187 131.286 250.938C130.519 250.688 129.85 250.286 129.279 249.733C128.708 249.18 128.254 248.467 127.915 247.593C127.593 246.701 127.433 245.612 127.433 244.328C127.433 243.168 127.593 242.151 127.915 241.277C128.236 240.385 128.673 239.645 129.226 239.056C129.797 238.45 130.457 237.995 131.206 237.691C131.973 237.388 132.803 237.236 133.695 237.236C134.569 237.236 135.327 237.406 135.969 237.745C136.612 238.084 137.138 238.548 137.548 239.136C137.976 239.707 138.289 240.385 138.485 241.17C138.699 241.937 138.806 242.749 138.806 243.605L138.404 244.783H129.761C129.761 245.336 129.832 245.889 129.975 246.442C130.118 246.995 130.359 247.494 130.698 247.94C131.054 248.386 131.509 248.752 132.062 249.038C132.633 249.305 133.338 249.439 134.176 249.439C134.712 249.439 135.202 249.412 135.648 249.359C136.094 249.287 136.478 249.216 136.799 249.145C137.138 249.055 137.45 248.957 137.735 248.85L138.137 250.643ZM136.585 243.07C136.585 242.945 136.558 242.669 136.505 242.241C136.451 241.812 136.326 241.366 136.13 240.903C135.934 240.439 135.63 240.028 135.22 239.672C134.81 239.297 134.266 239.11 133.588 239.11C132.838 239.11 132.223 239.27 131.741 239.591C131.26 239.895 130.876 240.26 130.591 240.688C130.305 241.117 130.109 241.554 130.002 242C129.895 242.446 129.841 242.802 129.841 243.07H136.585ZM143.244 244.301C143.244 246.032 143.628 247.325 144.395 248.181C145.18 249.02 146.232 249.439 147.553 249.439C148.855 249.439 149.872 249.02 150.603 248.181C151.335 247.343 151.7 246.085 151.7 244.408C151.7 242.624 151.308 241.295 150.523 240.421C149.756 239.547 148.703 239.11 147.365 239.11C146.027 239.11 145.002 239.547 144.288 240.421C143.592 241.277 143.244 242.571 143.244 244.301ZM140.97 244.274C140.97 242.918 141.184 241.795 141.612 240.903C142.04 239.993 142.584 239.27 143.244 238.735C143.904 238.182 144.609 237.798 145.358 237.584C146.125 237.352 146.848 237.236 147.526 237.236C148.168 237.236 148.864 237.343 149.613 237.558C150.38 237.754 151.085 238.119 151.727 238.655C152.369 239.172 152.905 239.877 153.333 240.769C153.761 241.643 153.975 242.758 153.975 244.114C153.975 245.523 153.752 246.692 153.306 247.619C152.878 248.547 152.334 249.287 151.674 249.84C151.014 250.376 150.3 250.75 149.533 250.964C148.766 251.196 148.052 251.312 147.392 251.312C146.714 251.312 146.001 251.205 145.251 250.991C144.502 250.777 143.806 250.411 143.164 249.894C142.54 249.359 142.013 248.636 141.585 247.726C141.175 246.816 140.97 245.666 140.97 244.274Z" fill="black"/>
</g>
<g filter="url(#filter1_d_14_40)">
<rect x="8" y="4" width="233" height="487" rx="34" stroke="black" stroke-width="8" shape-rendering="crispEdges"/>
</g>
<g filter="url(#filter2_d_14_40)">
<path d="M71 8H176C176 20.7025 165.703 31 153 31H94C81.2974 31 71 20.7025 71 8Z" fill="black"/>
</g>
<defs>
<filter id="filter0_d_14_40" x="0" y="8" width="246" height="487" filterUnits="userSpaceOnUse" color-interpolation-filters="sRGB">
<feFlood flood-opacity="0" result="BackgroundImageFix"/>
<feColorMatrix in="SourceAlpha" type="matrix" values="0 0 0 0 0 0 0 0 0 0 0 0 0 0 0 0 0 0 127 0" result="hardAlpha"/>
<feOffset dy="4"/>
<feGaussianBlur stdDeviation="2"/>
<feComposite in2="hardAlpha" operator="out"/>
<feColorMatrix type="matrix" values="0 0 0 0 0 0 0 0 0 0 0 0 0 0 0 0 0 0 0.25 0"/>
<feBlend mode="normal" in2="BackgroundImageFix" result="effect1_dropShadow_14_40"/>
<feBlend mode="normal" in="SourceGraphic" in2="effect1_dropShadow_14_40" result="shape"/>
</filter>
<filter id="filter1_d_14_40" x="0" y="0" width="249" height="503" filterUnits="userSpaceOnUse" color-interpolation-filters="sRGB">
<feFlood flood-opacity="0" result="BackgroundImageFix"/>
<feColorMatrix in="SourceAlpha" type="matrix" values="0 0 0 0 0 0 0 0 0 0 0 0 0 0 0 0 0 0 127 0" result="hardAlpha"/>
<feOffset dy="4"/>
<feGaussianBlur stdDeviation="2"/>
<feComposite in2="hardAlpha" operator="out"/>
<feColorMatrix type="matrix" values="0 0 0 0 0 0 0 0 0 0 0 0 0 0 0 0 0 0 0.25 0"/>
<feBlend mode="normal" in2="BackgroundImageFix" result="effect1_dropShadow_14_40"/>
<feBlend mode="normal" in="SourceGraphic" in2="effect1_dropShadow_14_40" result="shape"/>
</filter>
<filter id="filter2_d_14_40" x="67" y="8" width="113" height="31" filterUnits="userSpaceOnUse" color-interpolation-filters="sRGB">
<feFlood flood-opacity="0" result="BackgroundImageFix"/>
<feColorMatrix in="SourceAlpha" type="matrix" values="0 0 0 0 0 0 0 0 0 0 0 0 0 0 0 0 0 0 127 0" result="hardAlpha"/>
<feOffset dy="4"/>
<feGaussianBlur stdDeviation="2"/>
<feComposite in2="hardAlpha" operator="out"/>
<feColorMatrix type="matrix" values="0 0 0 0 0 0 0 0 0 0 0 0 0 0 0 0 0 0 0.25 0"/>
<feBlend mode="normal" in2="BackgroundImageFix" result="effect1_dropShadow_14_40"/>
<feBlend mode="normal" in="SourceGraphic" in2="effect1_dropShadow_14_40" result="shape"/>
</filter>
<linearGradient id="paint0_linear_14_40" x1="-53.5385" y1="211.639" x2="279.923" y2="211.639" gradientUnits="userSpaceOnUse">
<stop stop-color="#F1EFEF"/>
<stop offset="0.53125" stop-color="#F9F8F8"/>
<stop offset="0.992158" stop-color="#E7E5E5"/>
</linearGradient>
</defs>
</svg>
