<svg width="31" height="31" viewBox="0 0 31 31" fill="none" xmlns="http://www.w3.org/2000/svg">
<path d="M15.435 0C6.9113 0 0 6.9113 0 15.435C0 23.9587 6.9113 30.87 15.435 30.87C23.9587 30.87 30.87 23.9587 30.87 15.435C30.87 6.9113 23.9587 0 15.435 0ZM22.8528 11.6348C22.8631 11.7968 22.8631 11.9656 22.8631 12.1309C22.8631 17.1887 19.0112 23.0147 11.9725 23.0147C9.80192 23.0147 7.78985 22.3842 6.09476 21.2989C6.40484 21.3334 6.70113 21.3472 7.0181 21.3472C8.80966 21.3472 10.4565 20.7408 11.7692 19.7141C10.0879 19.6796 8.6753 18.5771 8.19295 17.0612C8.7821 17.1473 9.31268 17.1473 9.91905 16.9923C9.05334 16.8164 8.27521 16.3462 7.71687 15.6616C7.15852 14.9771 6.8544 14.1203 6.85617 13.2369V13.1887C7.36263 13.4746 7.95867 13.6503 8.58227 13.6744C8.05804 13.3251 7.62812 12.8517 7.33063 12.2964C7.03314 11.7411 6.87727 11.121 6.87684 10.491C6.87684 9.7778 7.06289 9.12663 7.39709 8.5616C8.35799 9.7445 9.55706 10.712 10.9164 11.4011C12.2756 12.0903 13.7647 12.4857 15.2869 12.5616C14.7459 9.9604 16.6891 7.85531 19.025 7.85531C20.1275 7.85531 21.1198 8.31699 21.8192 9.06117C22.6839 8.89924 23.5108 8.57538 24.2481 8.14127C23.9622 9.02672 23.3627 9.77435 22.5668 10.2464C23.3385 10.1637 24.0827 9.95006 24.7718 9.65032C24.2516 10.4152 23.6004 11.0939 22.8528 11.6348Z" fill="black"/>
</svg>
